# xmcd
#
# Track frame offsets: 
#        150
#        13350
#        26550
#        42450
#        56175
#        71250
#        84825
#        99525
#        114225
#        128100
#        139420
#        151800
#        165375
#        180750
#        196950
#        211275
#        221700
#        234600
#        250500
#        268350
#
# Disc length: 3786 seconds
#
# Revision: 1
# Processed by: cddbd v1.5.2PL0 Copyright (c) Steve Scherf et al.
# Submitted via: ExactAudioCopy v0.99pb5
#
DISCID=150ec814
DTITLE=Various Artist - Χρυσή δισκοθήκη 1964
DYEAR=1964
DGENRE=Oldies
TTITLE0=Στ. Καζαντζίδης - Όση γλύκα έχουν τα χείλη σου
TTITLE1=Γιώτα Λύδια - Αχ ας μπορούσα
TTITLE2=Πάνος Γαβαλάς and Ρία Κούρτη - Όνειρο δεμένο
TTITLE3=Βίκυ Μοσχολιού - Βάλε κι άλλο πιάτο στο τραπέζι
TTITLE4=Γρ. Μπιθικώτσης and Βούλα Γκίκα - Τριαντάφυλλα Σπασμένα
TTITLE5=Μηχ. Μενιδιάτης - Αγωνίες
TTITLE6=Πόλυ Πάνου - ’σε πρώτα να σε ξεχάσω
TTITLE7=Στ. Καζαντζίδης and Μαρινέλλα - Και σιδερένια να είχα καρδιά
TTITLE8=Βίκυ Μοσχολιού - Χωρισμός
TTITLE9=Γρ. Μπιθικώτσης and Ρία Κούρτη - Στα χέρια σου μεγάλωσαν
TTITLE10=Β. Περπινιάδης and Ρία Νόρμα - Ξημέρωσε καλή μου
TTITLE11=Καίτη Γκρέυ - Η κατηφόρα
TTITLE12=Στ. Καζαντζήδης - Τα μοθτζουρωμένα χέρια
TTITLE13=Μαίρη Λίντα and Μανώλης Χιώτης - Πάρε με στο τηλέφωνο
TTITLE14=Πάνος Γαβαλάς and Ρία Κούρτη - Πρέπει να φύγω
TTITLE15=Στ. Καζαντζήδης and μαρινέλλα - Στην πόρτα σου
TTITLE16=Γιώτα Λύδια - Να καώ σαν τσιγάρο
TTITLE17=Πάνος Γαβαλάς and Ρία Κούρτη - Δρόμος χωρίς σύννεφα
TTITLE18=Στ. Καζαντζήδης& Βίκυ Μοσχολιού - Χάθηκε το φεγγάρι
TTITLE19=Γρ. Μπιθικώτσης - Ένα το χελιδώνι
EXTD=
EXTT0=
EXTT1=
EXTT2=
EXTT3=
EXTT4=
EXTT5=
EXTT6=
EXTT7=
EXTT8=
EXTT9=
EXTT10=
EXTT11=
EXTT12=
EXTT13=
EXTT14=
EXTT15=
EXTT16=
EXTT17=
EXTT18=
EXTT19=
PLAYORDER=
